<?xml version="1.0" encoding="UTF-8"?>
<svg xmlns="http://www.w3.org/2000/svg" width="1156" height="660" viewBox="0 0 1156 660">
  <path d="M 909 483 L 909 522 L 910 523 L 948 523 L 949 522 L 949 483 Z M 702 385 L 698 382 L 688 377 L 682 376 L 681 375 L 677 375 L 676 374 L 656 374 L 655 375 L 651 375 L 650 376 L 645 377 L 637 381 L 630 387 L 622 398 L 621 397 L 621 379 L 620 378 L 584 378 L 584 523 L 585 524 L 621 524 L 622 523 L 622 434 L 623 433 L 623 429 L 624 428 L 624 425 L 628 417 L 636 409 L 646 405 L 660 405 L 669 409 L 673 413 L 677 421 L 677 424 L 678 425 L 678 523 L 679 524 L 716 524 L 717 523 L 717 419 L 716 418 L 716 411 L 715 410 L 715 406 L 714 405 L 713 400 L 708 391 Z M 442 386 L 435 393 L 428 406 L 428 409 L 426 413 L 425 424 L 461 424 L 463 416 L 466 411 L 471 407 L 478 404 L 496 404 L 497 405 L 500 405 L 505 407 L 511 414 L 511 424 L 506 430 L 500 433 L 491 434 L 490 435 L 484 435 L 483 436 L 476 436 L 475 437 L 463 438 L 462 439 L 459 439 L 458 440 L 455 440 L 454 441 L 446 443 L 437 448 L 428 457 L 423 466 L 423 468 L 421 472 L 421 477 L 420 478 L 420 491 L 421 492 L 421 497 L 427 511 L 435 519 L 441 522 L 443 524 L 445 524 L 452 527 L 456 527 L 457 528 L 474 528 L 475 527 L 479 527 L 480 526 L 486 525 L 502 516 L 512 507 L 513 508 L 513 513 L 514 514 L 515 522 L 517 524 L 556 524 L 557 523 L 557 519 L 552 515 L 549 507 L 549 412 L 548 411 L 548 407 L 547 406 L 546 400 L 542 393 L 534 385 L 524 380 L 522 380 L 515 377 L 512 377 L 507 375 L 501 375 L 500 374 L 475 374 L 474 375 L 463 376 L 462 377 L 454 379 Z M 511 454 L 511 475 L 510 476 L 510 480 L 506 488 L 499 495 L 491 499 L 485 500 L 484 501 L 472 501 L 465 498 L 460 493 L 458 488 L 458 477 L 460 472 L 467 465 L 471 463 L 481 461 L 482 460 L 497 458 L 498 457 L 506 455 L 509 453 Z M 225 378 L 213 385 L 204 394 L 198 404 L 198 406 L 196 409 L 196 412 L 195 413 L 195 431 L 199 442 L 207 451 L 220 458 L 222 458 L 228 461 L 231 461 L 235 463 L 238 463 L 239 464 L 242 464 L 243 465 L 246 465 L 247 466 L 262 469 L 266 471 L 269 471 L 281 476 L 285 481 L 286 487 L 284 492 L 280 496 L 276 498 L 267 499 L 266 500 L 254 500 L 253 499 L 243 498 L 237 495 L 232 490 L 230 486 L 228 478 L 190 478 L 191 489 L 196 502 L 201 509 L 211 518 L 221 523 L 223 523 L 230 526 L 233 526 L 234 527 L 240 527 L 241 528 L 254 528 L 255 529 L 260 529 L 261 528 L 274 528 L 275 527 L 285 526 L 289 524 L 292 524 L 297 521 L 299 521 L 308 515 L 313 510 L 318 503 L 320 499 L 320 497 L 322 494 L 324 477 L 323 476 L 323 470 L 319 460 L 308 448 L 293 440 L 291 440 L 284 437 L 277 436 L 276 435 L 272 435 L 271 434 L 268 434 L 267 433 L 264 433 L 263 432 L 248 429 L 237 425 L 233 421 L 233 419 L 232 418 L 232 413 L 234 409 L 238 405 L 242 403 L 245 403 L 246 402 L 265 402 L 274 406 L 279 411 L 281 415 L 282 421 L 319 421 L 318 410 L 312 396 L 310 393 L 299 383 L 286 377 L 283 377 L 278 375 L 266 374 L 265 373 L 247 373 L 246 374 L 234 375 L 233 376 Z M 886 326 L 848 326 L 848 393 L 847 394 L 839 385 L 826 377 L 824 377 L 820 375 L 817 375 L 816 374 L 798 374 L 797 375 L 792 375 L 791 376 L 783 378 L 775 382 L 760 396 L 755 405 L 753 407 L 753 409 L 750 414 L 750 416 L 748 420 L 748 423 L 746 428 L 746 432 L 745 433 L 745 440 L 744 441 L 744 466 L 745 467 L 745 473 L 746 474 L 746 477 L 747 478 L 747 481 L 748 482 L 750 490 L 756 501 L 767 514 L 778 522 L 782 524 L 784 524 L 791 527 L 795 527 L 796 528 L 814 528 L 815 527 L 819 527 L 820 526 L 823 526 L 826 524 L 828 524 L 836 519 L 845 510 L 847 506 L 849 505 L 850 506 L 850 523 L 851 524 L 886 524 Z M 814 406 L 823 407 L 824 408 L 829 409 L 835 413 L 840 418 L 844 424 L 848 435 L 848 439 L 849 440 L 849 464 L 848 465 L 848 469 L 847 470 L 846 475 L 842 483 L 836 490 L 830 494 L 828 494 L 824 496 L 820 496 L 819 497 L 807 496 L 806 495 L 801 494 L 798 492 L 789 482 L 787 478 L 787 476 L 784 469 L 784 465 L 783 464 L 783 440 L 784 439 L 784 435 L 785 434 L 786 428 L 792 417 L 800 410 L 807 407 L 813 407 Z M 355 325 L 354 326 L 354 523 L 355 524 L 391 524 L 392 523 L 392 327 L 391 325 Z M 123 325 L 122 326 L 122 523 L 123 524 L 162 524 L 162 325 Z M 935 232 L 928 237 L 922 243 L 913 258 L 913 260 L 910 267 L 910 270 L 909 271 L 909 275 L 908 276 L 907 293 L 943 293 L 943 289 L 944 288 L 944 280 L 945 279 L 946 272 L 949 266 L 955 260 L 958 258 L 960 258 L 964 256 L 980 256 L 988 260 L 994 266 L 998 274 L 998 278 L 999 279 L 999 291 L 998 292 L 997 298 L 990 310 L 980 320 L 979 320 L 970 328 L 958 337 L 954 339 L 942 348 L 936 354 L 935 354 L 925 364 L 925 365 L 918 373 L 911 387 L 911 389 L 907 399 L 906 409 L 905 410 L 905 420 L 1037 420 L 1038 419 L 1038 387 L 954 387 L 953 386 L 955 382 L 964 373 L 1011 339 L 1023 327 L 1030 317 L 1033 311 L 1033 309 L 1036 302 L 1036 298 L 1037 297 L 1037 275 L 1036 274 L 1035 266 L 1030 254 L 1026 248 L 1015 237 L 1001 229 L 999 229 L 992 226 L 981 225 L 980 224 L 960 224 L 959 225 L 954 225 L 953 226 L 946 227 Z M 702 178 L 691 171 L 689 171 L 686 169 L 679 168 L 678 167 L 671 167 L 670 166 L 659 166 L 658 167 L 652 167 L 651 168 L 645 169 L 634 175 L 626 183 L 621 190 L 620 189 L 620 170 L 584 170 L 584 316 L 621 316 L 621 228 L 622 227 L 622 222 L 623 221 L 623 218 L 625 215 L 625 213 L 629 207 L 633 203 L 640 199 L 647 198 L 648 197 L 656 197 L 657 198 L 661 198 L 666 200 L 672 205 L 675 210 L 675 212 L 677 216 L 677 315 L 678 316 L 716 316 L 716 209 L 715 208 L 715 202 L 714 201 L 714 198 L 713 197 L 712 192 L 709 186 Z M 443 177 L 433 187 L 432 190 L 429 194 L 429 196 L 427 199 L 426 205 L 425 206 L 424 216 L 460 216 L 464 205 L 469 200 L 475 197 L 479 197 L 480 196 L 492 196 L 493 197 L 498 197 L 505 200 L 510 206 L 511 214 L 509 219 L 506 222 L 500 225 L 493 226 L 492 227 L 478 228 L 477 229 L 470 229 L 469 230 L 464 230 L 463 231 L 455 232 L 440 238 L 434 242 L 428 248 L 424 254 L 424 256 L 422 259 L 421 265 L 420 266 L 420 271 L 419 272 L 420 289 L 421 290 L 423 298 L 426 303 L 438 314 L 444 317 L 446 317 L 450 319 L 453 319 L 454 320 L 464 320 L 465 321 L 466 320 L 476 320 L 477 319 L 480 319 L 481 318 L 486 317 L 500 309 L 510 300 L 512 301 L 512 305 L 513 306 L 513 310 L 514 311 L 515 316 L 556 316 L 556 311 L 550 306 L 550 304 L 549 303 L 549 298 L 548 297 L 548 204 L 547 203 L 547 198 L 546 197 L 545 192 L 541 185 L 534 178 L 522 172 L 520 172 L 513 169 L 509 169 L 508 168 L 504 168 L 503 167 L 495 167 L 494 166 L 479 166 L 478 167 L 470 167 L 469 168 L 465 168 L 464 169 L 461 169 L 460 170 L 457 170 L 454 172 L 452 172 Z M 511 247 L 511 259 L 510 260 L 510 268 L 509 269 L 509 272 L 506 279 L 500 286 L 491 291 L 489 291 L 485 293 L 478 293 L 476 294 L 475 293 L 470 293 L 465 291 L 459 285 L 457 280 L 457 270 L 460 263 L 465 258 L 471 255 L 474 255 L 478 253 L 488 252 L 489 251 L 493 251 L 494 250 L 501 249 L 509 245 Z M 225 170 L 217 174 L 210 179 L 202 188 L 196 199 L 195 205 L 194 206 L 194 224 L 199 236 L 207 244 L 223 252 L 225 252 L 229 254 L 232 254 L 236 256 L 239 256 L 240 257 L 243 257 L 244 258 L 247 258 L 248 259 L 263 262 L 264 263 L 270 264 L 276 267 L 278 267 L 284 273 L 285 280 L 284 281 L 284 283 L 276 290 L 269 291 L 268 292 L 250 292 L 249 291 L 241 290 L 233 285 L 229 279 L 227 270 L 189 270 L 189 275 L 190 276 L 191 285 L 196 296 L 198 299 L 211 311 L 219 315 L 221 315 L 228 318 L 231 318 L 232 319 L 237 319 L 238 320 L 245 320 L 246 321 L 267 321 L 268 320 L 276 320 L 277 319 L 281 319 L 282 318 L 292 316 L 302 311 L 314 300 L 317 294 L 319 292 L 319 290 L 322 283 L 322 277 L 323 276 L 322 262 L 321 261 L 320 256 L 315 248 L 308 241 L 302 238 L 300 236 L 296 234 L 294 234 L 291 232 L 289 232 L 285 230 L 282 230 L 278 228 L 274 228 L 269 226 L 265 226 L 264 225 L 249 222 L 248 221 L 242 220 L 239 218 L 237 218 L 232 213 L 232 211 L 231 210 L 231 205 L 235 199 L 242 195 L 246 195 L 247 194 L 261 194 L 262 195 L 269 196 L 274 199 L 279 205 L 279 207 L 282 214 L 318 214 L 319 213 L 318 212 L 317 202 L 311 188 L 308 184 L 299 176 L 289 171 L 287 171 L 280 168 L 270 167 L 269 166 L 241 166 L 240 167 L 235 167 L 234 168 L 231 168 L 230 169 Z M 885 118 L 848 118 L 848 186 L 847 187 L 846 187 L 845 185 L 835 175 L 824 169 L 822 169 L 818 167 L 812 167 L 811 166 L 801 166 L 800 167 L 793 167 L 792 168 L 789 168 L 775 174 L 768 179 L 762 185 L 753 198 L 747 213 L 747 216 L 745 221 L 745 226 L 744 227 L 744 235 L 743 236 L 743 256 L 744 257 L 744 264 L 745 265 L 745 269 L 746 270 L 746 273 L 747 274 L 748 279 L 755 293 L 760 300 L 768 308 L 775 313 L 783 317 L 785 317 L 789 319 L 792 319 L 793 320 L 803 320 L 804 321 L 805 320 L 815 320 L 816 319 L 820 319 L 826 316 L 828 316 L 830 314 L 833 313 L 842 305 L 848 297 L 849 298 L 849 316 L 885 316 L 886 315 L 886 119 Z M 809 199 L 821 199 L 822 200 L 827 201 L 835 206 L 843 216 L 844 220 L 846 223 L 846 226 L 848 231 L 849 249 L 848 250 L 848 258 L 847 259 L 847 262 L 846 263 L 845 268 L 840 277 L 833 284 L 828 287 L 822 288 L 821 289 L 809 289 L 798 285 L 788 274 L 784 264 L 783 255 L 782 254 L 782 234 L 783 233 L 783 228 L 784 227 L 785 221 L 790 211 L 798 203 Z M 353 118 L 353 316 L 390 316 L 391 315 L 391 119 L 390 118 Z M 121 118 L 121 316 L 161 316 L 162 315 L 162 119 L 161 118 Z" fill="#FFFFFF" fill-rule="evenodd"/>
</svg>